<?xml version="1.0" encoding="iso-8859-1"?>
<!-- Generator: Adobe Illustrator 19.0.0, SVG Export Plug-In . SVG Version: 6.00 Build 0)  -->
<svg version="1.1" id="Capa_1" xmlns="http://www.w3.org/2000/svg" xmlns:xlink="http://www.w3.org/1999/xlink" x="0px" y="0px"
	 viewBox="0 0 448 448" style="enable-background:new 0 0 448 448;" xml:space="preserve">
<g>
	<path style="fill:#F5A731;" d="M203.376,41.296L116.688,128h22.624l75.376-75.376C209.68,50.336,205.664,46.32,203.376,41.296z"/>
	<path style="fill:#F5A731;" d="M244.624,41.296c-2.272,5.008-6.304,9.04-11.312,11.312L308.688,128h22.624L244.624,41.296z"/>
</g>
<rect x="32" y="128" style="fill:#EFEEEE;" width="384" height="320"/>
<path style="fill:#CDCCCC;" d="M224,0c-17.68,0-32,14.32-32,32s14.32,32,32,32s32-14.32,32-32S241.68,0,224,0z"/>
<path style="fill:#ABABAB;" d="M224,16c-8.84,0-16,7.16-16,16s7.16,16,16,16s16-7.16,16-16S232.84,16,224,16z"/>
<path style="fill:#D84234;" d="M400,144v288H48V144H400"/>
<g>
	<path style="fill:#FFFFFF;" d="M99.184,187.568h11.008l5.744,39.216l0.928,5.792c0.432,3.136,0.768,6,0.992,8.592l0.592,7.168
		c0.048,0.176,0.08,0.512,0.128,0.992c0.032,0.48,0.08,1.072,0.16,1.808l0.288-2.736c0.432-4.768,0.896-9.168,1.392-13.184
		c0.48-4,1.024-7.712,1.616-11.104l6.064-36.528h8.752l5.68,35.488c0.848,5.248,1.552,10.112,2.112,14.608s1.024,8.768,1.392,12.848
		c0.368-4.304,0.784-8.464,1.232-12.464s0.944-7.952,1.456-11.808l0.816-5.632l4.88-33.024h10.88l-14.96,84.4h-8.864l-5.968-36.48
		c-0.032-0.144-0.128-0.752-0.272-1.808s-0.352-2.576-0.656-4.544l-1.136-8.416c-0.08-0.656-0.208-1.648-0.352-2.96
		c-0.176-1.312-0.336-2.976-0.512-4.976l-0.288-3.504c-0.08,0.832-0.144,1.568-0.224,2.192s-0.128,1.136-0.16,1.536
		c-0.192,2.4-0.336,4.272-0.464,5.616c-0.128,1.328-0.224,2.144-0.256,2.432l-1.152,8.096c-0.256,1.856-0.448,3.328-0.592,4.368
		s-0.256,1.712-0.336,1.968l-6.16,36.48h-9.152L99.184,187.568z"/>
	<path style="fill:#FFFFFF;" d="M183.12,187.568h30.256v9.632h-18.88v26.736h16.752v9.632h-16.752v28.816h18.88V272H183.12V187.568z
		"/>
	<path style="fill:#FFFFFF;" d="M234.368,184.88l9.072,2.672l-10.832,29.744l-5.728-1.648L234.368,184.88z"/>
	<path style="fill:#FFFFFF;" d="M256.384,187.568h15.008c6.192,0,10.8,1.472,13.824,4.432c3.824,3.824,5.728,9.68,5.728,17.552
		c0,6.048-0.992,10.912-3.024,14.576c-2.016,3.664-4.912,5.936-8.656,6.8L294.8,272h-11.552l-15.488-41.344V272h-11.376
		L256.384,187.568z M267.776,224.976c4.416,0,7.52-1.024,9.344-3.056s2.736-5.488,2.736-10.336c0-2.624-0.192-4.864-0.576-6.72
		c-0.368-1.856-0.992-3.376-1.792-4.544c-0.832-1.168-1.872-2.016-3.168-2.576s-2.848-0.816-4.624-0.816h-1.92V224.976z"/>
	<path style="fill:#FFFFFF;" d="M314.8,187.568h30.256v9.632h-18.88v26.736h16.752v9.632h-16.752v28.816h18.88V272H314.8V187.568z"
		/>
	<path style="fill:#FFFFFF;" d="M87.184,309.168H98.56v33.024h16.688v-33.024h11.376V393.6h-11.376v-41.776H98.56V393.6H87.184
		V309.168z"/>
	<path style="fill:#FFFFFF;" d="M146.352,309.168h11.376V393.6h-11.376V309.168z"/>
	<path style="fill:#FFFFFF;" d="M177.472,309.168h15.008c6.192,0,10.8,1.472,13.824,4.432c3.824,3.824,5.728,9.68,5.728,17.552
		c0,6.048-0.992,10.912-3.024,14.576c-2.016,3.664-4.912,5.936-8.656,6.8l15.536,41.072h-11.552l-15.488-41.344V393.6h-11.376
		L177.472,309.168z M188.864,346.576c4.416,0,7.52-1.024,9.344-3.056s2.736-5.488,2.736-10.336c0-2.624-0.192-4.864-0.576-6.72
		c-0.368-1.856-0.992-3.376-1.792-4.544c-0.832-1.168-1.872-2.016-3.168-2.576s-2.848-0.816-4.624-0.816h-1.92V346.576z"/>
	<path style="fill:#FFFFFF;" d="M231.376,309.168h11.376V393.6h-11.376V309.168z"/>
	<path style="fill:#FFFFFF;" d="M262.496,309.168h10.608l11.312,33.68c3.28,9.52,6.192,19.664,8.688,30.464
		c-0.912-6.528-1.584-12.432-2.016-17.712s-0.656-10.272-0.656-14.928v-31.504h11.376V393.6h-10.64l-12.72-38
		c-1.168-3.536-2.272-7.168-3.312-10.88c-1.024-3.712-1.984-7.616-2.864-11.696c-0.08-0.512-0.192-1.136-0.352-1.856
		s-0.336-1.568-0.56-2.512c0.096,0.944,0.192,1.76,0.272,2.432c0.08,0.672,0.128,1.248,0.176,1.712l0.592,8.592l0.64,10.448
		c0.048,0.592,0.08,1.296,0.096,2.128s0.032,1.792,0.032,2.848l0.608,36.8h-11.28L262.496,309.168L262.496,309.168z"/>
	<path style="fill:#FFFFFF;" d="M341.872,349.2h20.624v3.28c0,16.448-1.44,27.552-4.32,33.312
		c-2.848,5.904-8.176,8.864-15.968,8.864c-8.064,0-13.792-3.28-17.216-9.84c-3.408-6.56-5.088-17.6-5.088-33.088
		c0-17.712,1.856-29.52,5.584-35.376c3.504-5.504,8.88-8.256,16.144-8.256c5.536,0,9.856,1.328,12.96,4
		c3.136,2.688,5.584,7.12,7.328,13.296l-10.608,4.432c-0.464-2.224-0.992-4.096-1.584-5.6c-0.592-1.52-1.232-2.688-1.92-3.536
		c-1.392-1.712-3.472-2.576-6.24-2.576c-3.792,0-6.368,2.336-7.76,7.008c-1.392,4.88-2.08,13.664-2.08,26.304
		c0,12.8,0.72,21.456,2.128,25.984c1.44,4.528,4.112,6.784,8.048,6.784c3.616,0,6.144-1.6,7.616-4.816
		c1.488-3.424,2.24-8.928,2.24-16.512v-2.304v-1.696h-9.888L341.872,349.2L341.872,349.2z"/>
	<polygon style="fill:#FFFFFF;" points="231.376,309.168 231.376,312.624 234.832,309.168 	"/>
</g>
<g>
</g>
<g>
</g>
<g>
</g>
<g>
</g>
<g>
</g>
<g>
</g>
<g>
</g>
<g>
</g>
<g>
</g>
<g>
</g>
<g>
</g>
<g>
</g>
<g>
</g>
<g>
</g>
<g>
</g>
</svg>
